<svg width="341" height="162" viewBox="0 0 341 162" fill="none" xmlns="http://www.w3.org/2000/svg">
<path d="M50.7 39.5H5.6V110H50.7V94.3H25.2V81.6H47.7V66.7H25.2V55.2H50.7V39.5ZM57.9852 74.6C57.9852 95.7 71.8852 110.5 93.0852 110.5C110.785 110.5 123.385 100.3 126.885 84.3H105.785C103.285 89.6 98.5852 92.5 92.7852 92.5C83.7852 92.5 77.8852 85.5 77.8852 74.6C77.8852 63.8 83.7852 56.8 92.7852 56.8C98.5852 56.8 103.285 59.7 105.785 65H126.885C123.385 49 110.785 38.8 93.0852 38.8C71.8852 38.8 57.9852 53.6 57.9852 74.6ZM179.666 110H199.266V39.5H179.666V66H155.766V39.5H136.166V110H155.766V81.7H179.666V110Z" fill="black"/>
<path fill-rule="evenodd" clip-rule="evenodd" d="M276 140C311.899 140 341 110.899 341 75C341 39.1015 311.899 10 276 10C240.101 10 211 39.1015 211 75C211 110.899 240.101 140 276 140ZM279.5 135C312.361 135 339 108.361 339 75.5C339 42.6391 312.361 16 279.5 16C246.639 16 220 42.6391 220 75.5C220 108.361 246.639 135 279.5 135Z" fill="black"/>
<path d="M21.626 142.73H11.29L9.386 148H6.122L14.69 124.438H18.26L26.794 148H23.53L21.626 142.73ZM20.742 140.214L16.458 128.246L12.174 140.214H20.742ZM60.3802 131.17C59.7228 129.787 58.7708 128.722 57.5242 127.974C56.2775 127.203 54.8268 126.818 53.1722 126.818C51.5175 126.818 50.0215 127.203 48.6842 127.974C47.3695 128.722 46.3268 129.81 45.5562 131.238C44.8082 132.643 44.4342 134.275 44.4342 136.134C44.4342 137.993 44.8082 139.625 45.5562 141.03C46.3268 142.435 47.3695 143.523 48.6842 144.294C50.0215 145.042 51.5175 145.416 53.1722 145.416C55.4842 145.416 57.3882 144.725 58.8842 143.342C60.3802 141.959 61.2528 140.089 61.5022 137.732H52.0502V135.216H64.8002V137.596C64.6188 139.545 64.0068 141.336 62.9642 142.968C61.9215 144.577 60.5502 145.858 58.8502 146.81C57.1502 147.739 55.2575 148.204 53.1722 148.204C50.9735 148.204 48.9675 147.694 47.1542 146.674C45.3408 145.631 43.9015 144.192 42.8362 142.356C41.7935 140.52 41.2722 138.446 41.2722 136.134C41.2722 133.822 41.7935 131.748 42.8362 129.912C43.9015 128.053 45.3408 126.614 47.1542 125.594C48.9675 124.551 50.9735 124.03 53.1722 124.03C55.6882 124.03 57.9095 124.653 59.8362 125.9C61.7855 127.147 63.2022 128.903 64.0862 131.17H60.3802ZM83.8851 126.818V134.74H92.5211V137.29H83.8851V145.45H93.5411V148H80.7911V124.268H93.5411V126.818H83.8851ZM128.755 148H125.661L113.217 129.13V148H110.123V124.268H113.217L125.661 143.104V124.268H128.755V148ZM144.773 136.134C144.773 133.822 145.294 131.748 146.337 129.912C147.38 128.053 148.796 126.603 150.587 125.56C152.4 124.517 154.406 123.996 156.605 123.996C159.189 123.996 161.444 124.619 163.371 125.866C165.298 127.113 166.703 128.881 167.587 131.17H163.881C163.224 129.742 162.272 128.643 161.025 127.872C159.801 127.101 158.328 126.716 156.605 126.716C154.95 126.716 153.466 127.101 152.151 127.872C150.836 128.643 149.805 129.742 149.057 131.17C148.309 132.575 147.935 134.23 147.935 136.134C147.935 138.015 148.309 139.67 149.057 141.098C149.805 142.503 150.836 143.591 152.151 144.362C153.466 145.133 154.95 145.518 156.605 145.518C158.328 145.518 159.801 145.144 161.025 144.396C162.272 143.625 163.224 142.526 163.881 141.098H167.587C166.703 143.365 165.298 145.121 163.371 146.368C161.444 147.592 159.189 148.204 156.605 148.204C154.406 148.204 152.4 147.694 150.587 146.674C148.796 145.631 147.38 144.192 146.337 142.356C145.294 140.52 144.773 138.446 144.773 136.134ZM200.685 124.302L192.967 139.058V148H189.873V139.058L182.121 124.302H185.555L191.403 136.304L197.251 124.302H200.685Z" fill="black"/>
</svg>
