<svg width="106" height="39" viewBox="0 0 106 39" fill="none" xmlns="http://www.w3.org/2000/svg">
<g clip-path="url(#clip0_949_8227)">
<path d="M35.4015 3.2955V35.7778H3.00932V3.2955H35.4015ZM35.5421 0.27832H2.86871C2.49153 0.27832 2.11804 0.352897 1.76964 0.497783C1.42123 0.642669 1.10474 0.855021 0.838285 1.12268C0.571829 1.39035 0.360635 1.70807 0.216791 2.05766C0.0729473 2.40725 -0.000722678 2.78185 -2.39837e-06 3.16002V35.9188C-2.39837e-06 36.6816 0.302236 37.4132 0.840225 37.9526C1.37821 38.492 2.10788 38.795 2.86871 38.795H35.5421C36.3029 38.795 37.0326 38.492 37.5706 37.9526C38.1086 37.4132 38.4108 36.6816 38.4108 35.9188V3.16002C38.4103 2.39735 38.1079 1.66606 37.5701 1.12677C37.0322 0.587482 36.3028 0.284298 35.5421 0.283813V0.27832Z" fill="#001B46"/>
<path d="M19.252 29.6902C17.1448 29.6874 15.1177 28.8803 13.5826 27.4331C12.0475 25.9858 11.1196 24.0068 10.9873 21.8983C10.9831 21.833 10.9922 21.7676 11.0141 21.706C11.036 21.6444 11.0703 21.5879 11.1147 21.5401C11.1592 21.4923 11.2129 21.4541 11.2727 21.4278C11.3324 21.4016 11.3969 21.3878 11.4621 21.3875H12.5212C12.6399 21.3866 12.7545 21.4309 12.8419 21.5115C12.9293 21.592 12.9831 21.7027 12.9923 21.8214C13.1039 23.4097 13.812 24.8966 14.9738 25.9823C16.1356 27.0679 17.6647 27.6716 19.2529 27.6716C20.8411 27.6716 22.3702 27.0679 23.532 25.9823C24.6938 24.8966 25.4019 23.4097 25.5135 21.8214C25.5227 21.703 25.5762 21.5926 25.6632 21.5121C25.7502 21.4316 25.8644 21.3871 25.9828 21.3875H27.0437C27.1089 21.3878 27.1734 21.4016 27.2331 21.4278C27.2929 21.4541 27.3466 21.4923 27.3911 21.5401C27.4355 21.5879 27.4698 21.6444 27.4917 21.706C27.5136 21.7676 27.5227 21.833 27.5185 21.8983C27.3858 24.007 26.4574 25.9859 24.9221 27.4332C23.3867 28.8804 21.3594 29.6874 19.252 29.6902V29.6902Z" fill="#001B46"/>
<path d="M26.516 17.7919C25.6882 17.7919 24.879 17.5458 24.1908 17.0847C23.5025 16.6236 22.9661 15.9682 22.6493 15.2015C22.3325 14.4347 22.2496 13.591 22.4111 12.777C22.5726 11.963 22.9712 11.2153 23.5565 10.6285C24.1419 10.0416 24.8876 9.64196 25.6995 9.48005C26.5113 9.31813 27.3529 9.40123 28.1176 9.71883C28.8824 10.0364 29.536 10.5743 29.9959 11.2643C30.4558 11.9544 30.7013 12.7657 30.7013 13.5956C30.7003 14.7083 30.259 15.775 29.4744 16.5617C28.6897 17.3485 27.6257 17.7909 26.516 17.7919ZM26.516 11.4115C26.0846 11.4111 25.6628 11.5391 25.304 11.7791C24.9452 12.0192 24.6654 12.3606 24.5002 12.7601C24.3349 13.1596 24.2916 13.5993 24.3757 14.0235C24.4597 14.4477 24.6674 14.8374 24.9725 15.1432C25.2775 15.449 25.6661 15.6573 26.0893 15.7415C26.5124 15.8258 26.9509 15.7824 27.3494 15.6167C27.7478 15.451 28.0883 15.1706 28.3278 14.8108C28.5672 14.451 28.6948 14.0281 28.6945 13.5956C28.694 13.0165 28.4643 12.4612 28.0559 12.0517C27.6474 11.6422 27.0936 11.412 26.516 11.4115V11.4115Z" fill="#001B46"/>
<path d="M7.07592 12.0175V13.0776C7.07688 13.2027 7.12713 13.3224 7.21572 13.4105C7.30431 13.4986 7.42406 13.5481 7.54886 13.5481H10.1053V15.1702C10.1053 15.2959 10.1551 15.4165 10.2438 15.5055C10.3325 15.5944 10.4528 15.6444 10.5783 15.6444H11.6319C11.6942 15.6446 11.7559 15.6325 11.8134 15.6088C11.871 15.5851 11.9234 15.5502 11.9675 15.5061C12.0116 15.4621 12.0466 15.4097 12.0705 15.3521C12.0944 15.2944 12.1067 15.2326 12.1067 15.1702V13.5481H13.646V15.1702C13.646 15.2959 13.6958 15.4165 13.7845 15.5055C13.8732 15.5944 13.9935 15.6444 14.119 15.6444H15.1781C15.2402 15.6444 15.3017 15.6321 15.3591 15.6083C15.4164 15.5844 15.4686 15.5495 15.5125 15.5055C15.5564 15.4614 15.5912 15.4092 15.615 15.3516C15.6388 15.2941 15.651 15.2324 15.651 15.1702V12.0175C15.652 11.9545 15.6405 11.892 15.6172 11.8335C15.5939 11.775 15.5592 11.7218 15.5152 11.6768C15.4712 11.6319 15.4188 11.5961 15.3609 11.5716C15.303 11.5471 15.2409 11.5344 15.1781 11.5342H7.54886C7.48605 11.5344 7.4239 11.5471 7.36603 11.5716C7.30816 11.5961 7.25571 11.6319 7.21172 11.6768C7.16773 11.7218 7.13308 11.775 7.10977 11.8335C7.08645 11.892 7.07495 11.9545 7.07592 12.0175V12.0175Z" fill="#001B46"/>
<path d="M47.4315 20.5911V1.37303C47.4315 0.70112 47.8277 0.305664 48.4961 0.305664H55.2214C55.8897 0.305664 56.286 0.70112 56.286 1.37303V2.28844C56.286 2.95851 55.8897 3.3558 55.2214 3.3558H50.7786V9.30411H54.0345C54.7046 9.30411 55.099 9.7014 55.099 10.3715V11.2869C55.099 11.9588 54.7046 12.3543 54.0345 12.3543H50.7786V20.5929C50.7786 21.2648 50.3842 21.6603 49.714 21.6603H48.4961C47.8277 21.6584 47.4315 21.263 47.4315 20.5911Z" fill="#001B46"/>
<path d="M58.2015 20.5911V1.37303C58.2015 0.70112 58.5977 0.305664 59.2679 0.305664H63.161C66.6305 0.305664 68.1206 1.92227 68.1206 5.21591V6.5286C68.1206 8.72558 67.4212 10.128 65.9293 10.7395V10.8017C67.602 11.3217 68.1498 12.9072 68.1498 15.3183V19.0697C68.1306 19.5494 68.1612 20.0298 68.2411 20.5032C68.2742 20.6333 68.2944 20.7664 68.3013 20.9005C68.3013 21.3875 67.9672 21.6621 67.3883 21.6621H66.0498C65.4418 21.6621 64.9542 21.3875 64.8939 20.7467C64.8185 20.18 64.788 19.6082 64.8026 19.0367V15.1316C64.8026 13.1488 64.2256 12.508 62.7045 12.508H61.5468V20.5911C61.5468 21.263 61.1524 21.6584 60.4822 21.6584H59.2661C58.5977 21.6584 58.2015 21.263 58.2015 20.5911ZM62.7666 9.45607C64.0138 9.45607 64.7752 8.90683 64.7752 7.19868V5.55095C64.7752 4.02405 64.2567 3.35397 63.0697 3.35397H61.5486V9.45607H62.7666Z" fill="#001B46"/>
<path d="M70.5236 16.5945V5.36978C70.5236 1.95165 72.3113 0 75.5982 0C78.8851 0 80.6801 1.95165 80.6801 5.36978V16.5945C80.6874 20.0126 78.8851 21.9698 75.5982 21.9698C72.3113 21.9698 70.5236 20.0126 70.5236 16.5945ZM77.3402 16.8087V5.15557C77.3402 3.6305 76.6701 3.05014 75.6055 3.05014C74.5409 3.05014 73.8708 3.6305 73.8708 5.15557V16.8087C73.8708 18.3338 74.5409 18.9141 75.6055 18.9141C76.6701 18.9141 77.3402 18.3338 77.3402 16.8087V16.8087Z" fill="#001B46"/>
<path d="M83.242 20.5911V1.37303C83.242 0.70112 83.6364 0.305664 84.3066 0.305664H86.4979C87.137 0.305664 87.5314 0.580286 87.6848 1.22107L90.6959 13.0866H90.7544V1.37303C90.7544 0.70112 91.1488 0.305664 91.8189 0.305664H92.6699C93.34 0.305664 93.7345 0.70112 93.7345 1.37303V20.5966C93.7345 21.2685 93.34 21.6639 92.6699 21.6639H91.2401C90.601 21.6639 90.2066 21.3893 90.0532 20.7485L86.2842 6.0709H86.224V20.5911C86.224 21.263 85.8277 21.6584 85.1594 21.6584H84.3066C83.6328 21.6584 83.242 21.263 83.242 20.5911Z" fill="#001B46"/>
<path d="M99.1542 20.5911V3.3558H96.7201C96.0499 3.3558 95.6537 2.95851 95.6537 2.28844V1.37303C95.6537 0.70112 96.0499 0.305664 96.7201 0.305664H104.937C105.606 0.305664 106.002 0.70112 106.002 1.37303V2.28844C106.002 2.95851 105.606 3.3558 104.937 3.3558H102.501V20.5911C102.501 21.263 102.105 21.6584 101.435 21.6584H100.219C99.5486 21.6584 99.1542 21.263 99.1542 20.5911Z" fill="#001B46"/>
<path d="M47.4315 35.3237V27.6453C47.4315 25.3055 48.6604 23.969 50.9119 23.969C53.1634 23.969 54.3905 25.3055 54.3905 27.6453V35.3347C54.3905 37.6745 53.1616 39.011 50.9119 39.011C48.6622 39.011 47.4315 37.6635 47.4315 35.3237ZM52.0989 35.4702V27.4896C52.0989 26.4461 51.6405 26.0488 50.9119 26.0488C50.1833 26.0488 49.7232 26.4461 49.7232 27.4896V35.4702C49.7232 36.5137 50.1815 36.911 50.9119 36.911C51.6423 36.911 52.0989 36.5137 52.0989 35.4702Z" fill="#001B46"/>
<path d="M56.1399 38.0609V24.8991C56.1306 24.8006 56.1431 24.7013 56.1765 24.6082C56.2099 24.5151 56.2634 24.4306 56.3332 24.3606C56.403 24.2907 56.4873 24.237 56.5801 24.2035C56.673 24.17 56.7721 24.1575 56.8703 24.1668H61.4738C61.572 24.1575 61.6711 24.17 61.7639 24.2035C61.8568 24.237 61.9411 24.2907 62.0109 24.3606C62.0807 24.4306 62.1342 24.5151 62.1676 24.6082C62.201 24.7013 62.2135 24.8006 62.2042 24.8991V25.5253C62.2138 25.6238 62.2016 25.7233 62.1683 25.8166C62.135 25.9098 62.0815 25.9945 62.0116 26.0645C61.9418 26.1346 61.8573 26.1882 61.7643 26.2216C61.6713 26.255 61.5721 26.2673 61.4738 26.2576H58.4334V30.3312H60.6612C60.7595 30.3215 60.8587 30.3338 60.9517 30.3672C61.0447 30.4006 61.1292 30.4542 61.199 30.5242C61.2689 30.5943 61.3224 30.6789 61.3557 30.7722C61.389 30.8654 61.4012 30.9649 61.3916 31.0635V31.6915C61.4012 31.79 61.389 31.8895 61.3557 31.9828C61.3224 32.076 61.2689 32.1607 61.199 32.2307C61.1292 32.3008 61.0447 32.3544 60.9517 32.3878C60.8587 32.4212 60.7595 32.4335 60.6612 32.4238H58.4334V38.0645C58.443 38.1631 58.4308 38.2626 58.3975 38.3558C58.3642 38.4491 58.3107 38.5338 58.2408 38.6038C58.171 38.6738 58.0865 38.7275 57.9935 38.7608C57.9005 38.7942 57.8013 38.8065 57.703 38.7969H56.8703C56.7717 38.8066 56.6721 38.7943 56.5788 38.7607C56.4855 38.7271 56.4008 38.6731 56.3309 38.6026C56.261 38.5322 56.2076 38.447 56.1745 38.3533C56.1415 38.2596 56.1297 38.1597 56.1399 38.0609V38.0609Z" fill="#001B46"/>
<path d="M65.6609 35.408V27.5538C65.6609 25.2965 66.8277 23.96 69.0372 23.96C71.2467 23.96 72.4118 25.2965 72.4118 27.5538V28.3777C72.4214 28.4763 72.4091 28.5758 72.3758 28.669C72.3426 28.7623 72.2891 28.847 72.2192 28.917C72.1494 28.987 72.0649 29.0407 71.9719 29.074C71.8789 29.1074 71.7797 29.1197 71.6813 29.11H70.9728C70.8745 29.1197 70.7753 29.1074 70.6823 29.074C70.5893 29.0407 70.5048 28.987 70.435 28.917C70.3651 28.847 70.3116 28.7623 70.2783 28.669C70.245 28.5758 70.2328 28.4763 70.2424 28.3777V27.4074C70.2424 26.4462 69.7841 26.0489 69.0957 26.0489C68.4072 26.0489 67.9489 26.4462 67.9489 27.4074V35.5746C67.9489 36.5358 68.4091 36.9111 69.0957 36.9111C69.7823 36.9111 70.2424 36.5358 70.2424 35.5746V34.0697C70.2328 33.9711 70.245 33.8717 70.2783 33.7784C70.3116 33.6852 70.3651 33.6005 70.435 33.5304C70.5048 33.4604 70.5893 33.4068 70.6823 33.3734C70.7753 33.34 70.8745 33.3277 70.9728 33.3374H71.6813C71.7797 33.3277 71.8789 33.34 71.9719 33.3734C72.0649 33.4068 72.1494 33.4604 72.2192 33.5304C72.2891 33.6005 72.3426 33.6852 72.3758 33.7784C72.4091 33.8717 72.4214 33.9711 72.4118 34.0697V35.408C72.4118 37.6636 71.2449 39.0001 69.0372 39.0001C66.8295 39.0001 65.6609 37.6636 65.6609 35.408Z" fill="#001B46"/>
<path d="M73.9949 38.0608V24.8991C73.9856 24.8006 73.9981 24.7013 74.0315 24.6082C74.0649 24.5151 74.1184 24.4305 74.1882 24.3606C74.258 24.2906 74.3423 24.237 74.4352 24.2035C74.528 24.17 74.6271 24.1574 74.7253 24.1668H75.558C75.6563 24.1571 75.7556 24.1694 75.8486 24.2028C75.9416 24.2362 76.026 24.2898 76.0959 24.3598C76.1657 24.4299 76.2192 24.5146 76.2525 24.6078C76.2858 24.701 76.2981 24.8005 76.2884 24.8991V36.7005H79.3306C79.4289 36.6912 79.528 36.7037 79.6208 36.7372C79.7137 36.7707 79.798 36.8244 79.8678 36.8943C79.9375 36.9643 79.991 37.0488 80.0245 37.1419C80.0579 37.235 80.0704 37.3344 80.061 37.4329V38.059C80.0707 38.1576 80.0584 38.257 80.0251 38.3503C79.9918 38.4435 79.9383 38.5282 79.8685 38.5983C79.7986 38.6683 79.7142 38.7219 79.6212 38.7553C79.5282 38.7887 79.4289 38.801 79.3306 38.7913H74.7253C74.6272 38.801 74.5282 38.7887 74.4353 38.7554C74.3424 38.7221 74.2581 38.6687 74.1883 38.5988C74.1184 38.529 74.0649 38.4446 74.0315 38.3515C73.9981 38.2585 73.9856 38.1592 73.9949 38.0608V38.0608Z" fill="#001B46"/>
<path d="M80.912 38.1651C80.9128 38.1035 80.9195 38.0422 80.9321 37.982L83.1233 24.8422C83.1288 24.747 83.1533 24.6538 83.1954 24.5682C83.2375 24.4827 83.2964 24.4065 83.3684 24.3441C83.4405 24.2818 83.5243 24.2346 83.6149 24.2054C83.7054 24.1762 83.801 24.1655 83.8957 24.174H85.667C85.7616 24.1657 85.857 24.1766 85.9473 24.206C86.0377 24.2353 86.1213 24.2825 86.1931 24.3448C86.265 24.4071 86.3236 24.4833 86.3656 24.5687C86.4076 24.6541 86.4321 24.7471 86.4376 24.8422L88.6288 37.982C88.6414 38.0422 88.6481 38.1035 88.6489 38.1651C88.6489 38.5623 88.3988 38.7912 87.9623 38.7912H87.1498C86.7115 38.7912 86.4193 38.5825 86.3573 38.1229L86.0377 35.8839V35.926H83.3498L83.0375 38.1229C82.9754 38.5825 82.6832 38.7912 82.245 38.7912H81.6004C81.1622 38.7912 80.912 38.5623 80.912 38.1651ZM85.7674 33.945L84.7047 26.717H84.6627L83.62 33.945H85.7674Z" fill="#001B46"/>
<path d="M89.5583 35.3237V35.2193C89.5487 35.1208 89.5609 35.0213 89.5942 34.928C89.6275 34.8348 89.681 34.7501 89.7509 34.6801C89.8207 34.61 89.9052 34.5564 89.9982 34.523C90.0912 34.4896 90.1904 34.4773 90.2887 34.487H90.9972C91.0955 34.4773 91.1948 34.4896 91.2878 34.523C91.3808 34.5564 91.4652 34.61 91.5351 34.6801C91.6049 34.7501 91.6584 34.8348 91.6917 34.928C91.725 35.0213 91.7373 35.1208 91.7276 35.2193V35.4903C91.7276 36.5357 92.186 36.911 92.9146 36.911C93.6432 36.911 94.1015 36.5357 94.1015 35.4464C94.1015 34.2344 93.6432 33.4618 92.144 32.1509C90.2266 30.4592 89.6021 29.2674 89.6021 27.5958C89.6021 25.2982 90.7891 23.9617 93.0187 23.9617C95.2483 23.9617 96.353 25.3403 96.353 27.5134C96.353 28.0151 96.0809 28.2458 95.6226 28.2458H94.9141C94.4558 28.2458 94.1837 28.0169 94.1837 27.5134V27.4915C94.1837 26.4479 93.7673 26.0506 93.0369 26.0506C92.3065 26.0506 91.892 26.4479 91.892 27.4512C91.892 28.5149 92.3704 29.282 93.8714 30.6039C95.7888 32.2974 96.3914 33.4673 96.3914 35.2834C96.3914 37.6635 95.1843 39.0018 92.9328 39.0018C90.6813 39.0018 89.5583 37.6635 89.5583 35.3237Z" fill="#001B46"/>
<path d="M97.5107 35.3237V35.2193C97.5011 35.1208 97.5133 35.0213 97.5466 34.928C97.5799 34.8348 97.6334 34.7501 97.7033 34.6801C97.7731 34.61 97.8576 34.5564 97.9506 34.523C98.0436 34.4896 98.1428 34.4773 98.2412 34.487H98.9497C99.048 34.4773 99.1472 34.4896 99.2402 34.523C99.3332 34.5564 99.4177 34.61 99.4875 34.6801C99.5574 34.7501 99.6109 34.8348 99.6442 34.928C99.6775 35.0213 99.6897 35.1208 99.6801 35.2193V35.4903C99.6801 36.5357 100.138 36.911 100.867 36.911C101.596 36.911 102.056 36.5357 102.056 35.4464C102.056 34.2344 101.597 33.4618 100.096 32.1509C98.1791 30.4592 97.5546 29.2674 97.5546 27.5958C97.5546 25.2982 98.7433 23.9617 100.971 23.9617C103.199 23.9617 104.305 25.3403 104.305 27.5134C104.305 28.0151 104.035 28.2458 103.575 28.2458H102.867C102.408 28.2458 102.136 28.0169 102.136 27.5134V27.4915C102.136 26.4479 101.72 26.0506 100.991 26.0506C100.263 26.0506 99.8444 26.4479 99.8444 27.4512C99.8444 28.5149 100.325 29.282 101.824 30.6039C103.741 32.2974 104.346 33.4673 104.346 35.2834C104.346 37.6635 103.137 39.0018 100.887 39.0018C98.6374 39.0018 97.5107 37.6635 97.5107 35.3237Z" fill="#001B46"/>
</g>
<defs>
<clipPath id="clip0_949_8227">
<rect width="106" height="39" fill="white"/>
</clipPath>
</defs>
</svg>
