<svg width="256" height="279" viewBox="0 0 256 279" fill="none" xmlns="http://www.w3.org/2000/svg">
<path d="M85.8 42H117.4L84.8 143H32.8L0 42H31.6L54.8 115H62.8L85.8 42Z" fill="black"/>
<path d="M125.4 143V115H154V68.8L129.4 70V42L167.4 40C178.6 39.4 184.8 45.6 184.8 56.8V115H213.4V143H125.4ZM148 16C148 5.8 155 0 166.8 0C178.6 0 186 5.8 186 16C186 26.2 178.6 32 166.8 32C155 32 148 26.4 148 16Z" fill="black"/>
<path d="M127.6 277H95.6V270.8L101.6 252.8H93.6C88.4 266.2 76.8 279 53.8 279C22.6 279 6 255 6 226.4C6 197.8 22.6 174 53.8 174C76.8 174 88.4 186.8 93.6 200.2H101.6L95.6 182.2V176H127.6V277ZM66.8 202C49.6 202 38 208.2 38 226.4C38 244.6 49.6 251 66.8 251C84 251 95.6 244.8 95.6 226.4C95.6 208 84 202 66.8 202Z" fill="black"/>
<path d="M173.6 239.6V277H141.6V176H173.6V188.2L167.6 206.2H175.6C179.6 188.2 192.2 174 213.8 174C239.6 174 255.2 191.2 255.2 222.4V277H223.2V227.4C223.2 209 217.8 202 202.4 202C185 202 173.6 211.2 173.6 239.6Z" fill="black"/>
</svg>
