<svg width="469" height="145" viewBox="0 0 469 145" fill="none" xmlns="http://www.w3.org/2000/svg">
<path d="M85.8 42H117.4L84.8 143H32.8L0 42H31.6L54.8 115H62.8L85.8 42Z" fill="black"/>
<path d="M125.4 143V115H154V68.8L129.4 70V42L167.4 40C178.6 39.4 184.8 45.6 184.8 56.8V115H213.4V143H125.4ZM148 16C148 5.8 155 0 166.8 0C178.6 0 186 5.8 186 16C186 26.2 178.6 32 166.8 32C155 32 148 26.4 148 16Z" fill="black"/>
<path d="M341 143H309V136.8L315 118.8H307C301.8 132.2 290.2 145 267.2 145C236 145 219.4 121 219.4 92.4C219.4 63.8 236 40 267.2 40C290.2 40 301.8 52.8 307 66.2H315L309 48.2V42H341V143ZM280.2 68C263 68 251.4 74.2 251.4 92.4C251.4 110.6 263 117 280.2 117C297.4 117 309 110.8 309 92.4C309 74 297.4 68 280.2 68Z" fill="black"/>
<path d="M387 105.6V143H355V42H387V54.2L381 72.2H389C393 54.2 405.6 40 427.2 40C453 40 468.6 57.2 468.6 88.4V143H436.6V93.4C436.6 75 431.2 68 415.8 68C398.4 68 387 77.2 387 105.6Z" fill="black"/>
</svg>
