<svg width="419" height="81" viewBox="0 0 419 81" fill="none" xmlns="http://www.w3.org/2000/svg">
<path d="M0 54.8857C1.30245 51.063 3.86366 48.1675 6.86192 45.5957C8.53151 44.1698 10.2623 42.7964 11.8619 41.2918C14.1347 39.1399 14.4232 37.5041 13.2343 34.5998C12.0892 31.8356 10.6119 29.1675 9.81648 26.3158C7.93799 20.2258 7.38361 13.8041 8.1906 7.48199C8.47906 5.44378 9.06473 3.52804 10.9791 2.32086C11.9182 1.76363 12.9645 1.41164 14.0492 1.28801C15.134 1.16438 16.2326 1.27191 17.2728 1.60355C20.1326 2.28466 22.7956 3.62013 25.0526 5.50501C30.5148 9.93009 34.3974 16.0069 36.1191 22.8254C36.9145 25.9221 36.4075 28.9488 35.5334 31.9055C33.9774 37.1017 32.2292 42.2453 30.5596 47.4064C30.5268 47.4762 30.5099 47.5524 30.5099 47.6295C30.5099 47.7066 30.5268 47.7828 30.5596 47.8526C30.7344 47.5814 30.8918 47.3102 31.0841 47.0565C34.397 42.6827 37.6838 38.3088 41.0317 33.9875C44.1086 30.016 48.4443 28.3452 53.2695 27.5842C59.065 26.6657 64.7556 26.8844 70.2451 29.1763C72.4933 30.0638 74.5303 31.4138 76.2242 33.139C79.1613 36.2181 79.2487 39.621 76.2854 42.6564C74.7904 44.1717 73.1509 45.537 71.3902 46.7329C65.4199 50.8355 58.9513 53.731 51.6698 54.6058C51.1191 54.6976 50.5757 54.8292 50.044 54.9994C49.076 55.2075 48.1996 55.7193 47.5424 56.4604C46.8852 57.2014 46.4815 58.133 46.3901 59.1196C46.023 61.9451 45.8394 64.8056 45.516 67.6486C45.283 70.5072 44.4521 73.2849 43.0771 75.8014C41.5125 78.5394 38.654 79.5454 35.8393 78.1108C34.5992 77.4839 33.515 76.5873 32.6663 75.4865C30.6645 72.8097 28.8638 69.9842 27.0194 67.1937C26.4626 66.3097 25.9661 65.3891 25.5333 64.4382C24.5526 62.7431 24.2586 60.7364 24.7117 58.8309C22.2903 60.9216 19.3358 61.1228 16.4162 61.289C13.348 61.464 10.2973 61.4902 7.19409 61.5164C3.54897 61.5164 1.36364 59.9331 0.0174826 56.3116L0 54.8857Z" fill="#A62648"/>
<path d="M114.739 26.25C118.285 26.25 121.435 27.09 124.189 28.77C126.942 30.4033 129.065 32.6667 130.559 35.56C132.052 38.4067 132.799 41.58 132.799 45.08C132.799 48.6267 132.029 51.8233 130.489 54.67C128.995 57.47 126.849 59.6867 124.049 61.32C121.249 62.9067 118.052 63.7 114.459 63.7C111.332 63.7 108.485 62.9533 105.919 61.46C103.399 59.9667 101.439 57.8667 100.039 55.16V60.27C100.039 61.2033 99.7354 61.95 99.1288 62.51C98.5221 63.0233 97.8221 63.28 97.0288 63.28C96.1888 63.28 95.4654 63.0233 94.8588 62.51C94.2521 61.95 93.9488 61.2033 93.9488 60.27V13.23C93.9488 12.2967 94.2521 11.5733 94.8588 11.06C95.4654 10.5 96.1888 10.22 97.0288 10.22C97.8688 10.22 98.5688 10.5 99.1288 11.06C99.7354 11.5733 100.039 12.2967 100.039 13.23V35.35C101.159 32.55 103.025 30.3333 105.639 28.7C108.252 27.0667 111.285 26.25 114.739 26.25ZM113.269 58.24C115.835 58.24 118.122 57.68 120.129 56.56C122.182 55.3933 123.769 53.8067 124.889 51.8C126.055 49.7933 126.639 47.53 126.639 45.01C126.639 42.49 126.055 40.2267 124.889 38.22C123.769 36.1667 122.182 34.58 120.129 33.46C118.122 32.2933 115.835 31.71 113.269 31.71C110.749 31.71 108.485 32.2933 106.479 33.46C104.519 34.6267 102.955 36.2367 101.789 38.29C100.669 40.2967 100.109 42.5367 100.109 45.01C100.109 47.4367 100.669 49.6767 101.789 51.73C102.909 53.7367 104.472 55.3233 106.479 56.49C108.485 57.6567 110.749 58.24 113.269 58.24ZM174.056 43.4C174.149 44.4267 173.916 45.22 173.356 45.78C172.796 46.34 172.026 46.62 171.046 46.62H143.606C143.699 49 144.329 51.1 145.496 52.92C146.663 54.6933 148.179 56.0933 150.046 57.12C151.959 58.1 154.083 58.59 156.416 58.59C160.989 58.59 164.583 56.6533 167.196 52.78C167.756 51.94 168.456 51.52 169.296 51.52C169.949 51.52 170.533 51.8 171.046 52.36C171.606 52.92 171.886 53.5733 171.886 54.32C171.886 54.9267 171.676 55.51 171.256 56.07C169.576 58.3567 167.499 60.2 165.026 61.6C162.553 63 159.659 63.7 156.346 63.7C152.753 63.7 149.533 62.93 146.686 61.39C143.839 59.8033 141.599 57.5867 139.966 54.74C138.333 51.8933 137.516 48.6267 137.516 44.94C137.516 41.44 138.309 38.2667 139.896 35.42C141.483 32.5733 143.653 30.3333 146.406 28.7C149.206 27.02 152.356 26.18 155.856 26.18C159.169 26.18 162.156 26.9033 164.816 28.35C167.476 29.75 169.599 31.7567 171.186 34.37C172.819 36.9367 173.776 39.9467 174.056 43.4ZM155.856 31.22C153.663 31.22 151.656 31.71 149.836 32.69C148.016 33.6233 146.546 34.9533 145.426 36.68C144.306 38.36 143.699 40.25 143.606 42.35H168.106C167.966 40.25 167.359 38.36 166.286 36.68C165.213 35 163.766 33.67 161.946 32.69C160.173 31.71 158.143 31.22 155.856 31.22ZM214.577 26.81C215.417 26.81 216.14 27.0667 216.747 27.58C217.353 28.0933 217.657 28.84 217.657 29.82V60.34C217.657 61.2733 217.353 62.02 216.747 62.58C216.14 63.0933 215.417 63.35 214.577 63.35C213.737 63.35 212.99 63.0933 212.337 62.58C211.73 62.02 211.427 61.2733 211.427 60.34V54.53C210.353 57.2833 208.533 59.5 205.967 61.18C203.4 62.86 200.343 63.7 196.797 63.7C193.203 63.7 190.03 62.8833 187.277 61.25C184.57 59.57 182.47 57.3067 180.977 54.46C179.483 51.5667 178.737 48.37 178.737 44.87C178.737 41.3233 179.483 38.1267 180.977 35.28C182.517 32.4333 184.663 30.2167 187.417 28.63C190.217 26.9967 193.437 26.18 197.077 26.18C200.203 26.18 203.027 26.95 205.547 28.49C208.113 29.9833 210.073 32.06 211.427 34.72V29.82C211.427 28.8867 211.73 28.1633 212.337 27.65C212.99 27.09 213.737 26.81 214.577 26.81ZM198.197 58.24C200.717 58.24 202.98 57.6567 204.987 56.49C206.993 55.3233 208.557 53.7367 209.677 51.73C210.843 49.6767 211.427 47.4133 211.427 44.94C211.427 42.4667 210.843 40.2267 209.677 38.22C208.557 36.2133 206.993 34.6267 204.987 33.46C202.98 32.2933 200.717 31.71 198.197 31.71C195.677 31.71 193.39 32.2933 191.337 33.46C189.33 34.58 187.743 36.1433 186.577 38.15C185.457 40.1567 184.897 42.42 184.897 44.94C184.897 47.46 185.457 49.7467 186.577 51.8C187.743 53.8067 189.33 55.3933 191.337 56.56C193.39 57.68 195.677 58.24 198.197 58.24ZM256.314 26.67C257.154 26.67 257.878 26.95 258.484 27.51C259.091 28.0233 259.394 28.77 259.394 29.75V60.2C259.394 61.18 259.091 61.95 258.484 62.51C257.878 63.0233 257.154 63.28 256.314 63.28C255.474 63.28 254.751 63 254.144 62.44C253.538 61.88 253.234 61.1333 253.234 60.2V56.35C252.068 58.73 250.411 60.55 248.264 61.81C246.164 63.07 243.621 63.7 240.634 63.7C236.434 63.7 232.958 62.4167 230.204 59.85C227.451 57.2833 226.074 53.3867 226.074 48.16V29.82C226.074 28.84 226.378 28.07 226.984 27.51C227.591 26.95 228.314 26.67 229.154 26.67C229.994 26.67 230.718 26.95 231.324 27.51C231.931 28.07 232.234 28.84 232.234 29.82V47.32C232.234 51.1933 233.191 54.0167 235.104 55.79C237.018 57.5633 239.444 58.45 242.384 58.45C245.651 58.45 248.264 57.4467 250.224 55.44C252.184 53.3867 253.188 50.47 253.234 46.69V29.75C253.234 28.77 253.538 28.0233 254.144 27.51C254.798 26.95 255.521 26.67 256.314 26.67ZM282.754 26.95C283.407 26.95 283.967 27.2067 284.434 27.72C284.947 28.1867 285.204 28.7467 285.204 29.4C285.204 30.0533 284.947 30.6133 284.434 31.08C283.967 31.5467 283.407 31.78 282.754 31.78H277.224V60.27C277.224 61.2033 276.92 61.95 276.314 62.51C275.707 63.0233 275.007 63.28 274.214 63.28C273.374 63.28 272.65 63.0233 272.044 62.51C271.437 61.95 271.134 61.2033 271.134 60.27V31.78H267.914C267.26 31.78 266.677 31.5467 266.164 31.08C265.697 30.6133 265.464 30.0533 265.464 29.4C265.464 28.7467 265.697 28.1867 266.164 27.72C266.677 27.2067 267.26 26.95 267.914 26.95H271.134V19.32C271.134 18.3867 271.437 17.6633 272.044 17.15C272.697 16.59 273.42 16.31 274.214 16.31C275.007 16.31 275.707 16.59 276.314 17.15C276.92 17.6633 277.224 18.3867 277.224 19.32V26.95H282.754ZM317.679 28.63C317.959 27.9767 318.356 27.4867 318.869 27.16C319.382 26.7867 319.942 26.6 320.549 26.6C321.389 26.6 322.112 26.88 322.719 27.44C323.372 27.9533 323.699 28.63 323.699 29.47C323.699 29.9833 323.606 30.45 323.419 30.87L304.029 77.49C303.749 78.1433 303.352 78.6333 302.839 78.96C302.326 79.2867 301.766 79.45 301.159 79.45C300.366 79.45 299.642 79.17 298.989 78.61C298.382 78.0967 298.079 77.4433 298.079 76.65C298.079 76.1833 298.172 75.74 298.359 75.32L303.469 63.14L289.469 30.94C289.282 30.5667 289.189 30.1467 289.189 29.68C289.189 28.84 289.516 28.14 290.169 27.58C290.869 26.9733 291.662 26.67 292.549 26.67C293.902 26.67 294.836 27.3233 295.349 28.63C299.922 39.83 303.702 49.3033 306.689 57.05C309.209 50.33 312.872 40.8567 317.679 28.63ZM361.755 26.67C362.548 26.67 363.248 26.95 363.855 27.51C364.461 28.0233 364.765 28.7467 364.765 29.68V59.78C364.765 66.22 363.038 71.19 359.585 74.69C356.131 78.2367 351.441 80.01 345.515 80.01C343.041 80.01 340.545 79.6833 338.025 79.03C335.505 78.3767 333.335 77.49 331.515 76.37C330.908 75.9967 330.441 75.5533 330.115 75.04C329.835 74.5267 329.695 74.0133 329.695 73.5C329.695 72.8467 329.905 72.31 330.325 71.89C330.745 71.47 331.305 71.26 332.005 71.26C332.518 71.26 332.985 71.3533 333.405 71.54C333.685 71.6333 334.151 71.8433 334.805 72.17C336.531 72.9167 338.165 73.5233 339.705 73.99C341.291 74.4567 343.088 74.69 345.095 74.69C349.435 74.69 352.771 73.43 355.105 70.91C357.438 68.39 358.605 64.68 358.605 59.78V54.53C357.531 57.2833 355.711 59.5 353.145 61.18C350.578 62.86 347.521 63.7 343.975 63.7C340.381 63.7 337.208 62.8833 334.455 61.25C331.748 59.57 329.648 57.3067 328.155 54.46C326.661 51.5667 325.915 48.37 325.915 44.87C325.915 41.3233 326.661 38.1267 328.155 35.28C329.695 32.4333 331.841 30.2167 334.595 28.63C337.395 26.9967 340.615 26.18 344.255 26.18C347.381 26.18 350.205 26.95 352.725 28.49C355.291 29.9833 357.251 32.06 358.605 34.72V29.89C358.605 28.8633 358.908 28.07 359.515 27.51C360.168 26.95 360.915 26.67 361.755 26.67ZM345.375 58.24C347.895 58.24 350.158 57.6567 352.165 56.49C354.171 55.3233 355.735 53.7367 356.855 51.73C358.021 49.6767 358.605 47.4133 358.605 44.94C358.605 42.4667 358.021 40.2267 356.855 38.22C355.735 36.2133 354.171 34.6267 352.165 33.46C350.158 32.2933 347.895 31.71 345.375 31.71C342.855 31.71 340.568 32.2933 338.515 33.46C336.508 34.58 334.921 36.1433 333.755 38.15C332.635 40.1567 332.075 42.42 332.075 44.94C332.075 47.46 332.635 49.7467 333.755 51.8C334.921 53.8067 336.508 55.3933 338.515 56.56C340.568 57.68 342.855 58.24 345.375 58.24ZM390.964 63.7C387.37 63.7 384.104 62.8833 381.164 61.25C378.27 59.6167 375.984 57.3767 374.304 54.53C372.624 51.6367 371.784 48.44 371.784 44.94C371.784 41.44 372.624 38.2667 374.304 35.42C375.984 32.5267 378.27 30.2633 381.164 28.63C384.104 26.9967 387.37 26.18 390.964 26.18C394.557 26.18 397.824 26.9967 400.764 28.63C403.704 30.2633 405.99 32.5267 407.624 35.42C409.304 38.2667 410.144 41.44 410.144 44.94C410.144 48.44 409.304 51.6367 407.624 54.53C405.99 57.3767 403.704 59.6167 400.764 61.25C397.824 62.8833 394.557 63.7 390.964 63.7ZM390.964 58.17C393.437 58.17 395.677 57.5867 397.684 56.42C399.69 55.2533 401.277 53.6667 402.444 51.66C403.61 49.6067 404.194 47.3433 404.194 44.87C404.194 42.4433 403.61 40.2267 402.444 38.22C401.324 36.2133 399.737 34.6267 397.684 33.46C395.677 32.2933 393.437 31.71 390.964 31.71C388.49 31.71 386.25 32.2933 384.244 33.46C382.237 34.6267 380.65 36.2133 379.484 38.22C378.317 40.2267 377.734 42.4433 377.734 44.87C377.734 47.3433 378.317 49.6067 379.484 51.66C380.65 53.6667 382.237 55.2533 384.244 56.42C386.297 57.5867 388.537 58.17 390.964 58.17Z" fill="#A62648"/>
</svg>
