<svg width="206" height="41" viewBox="0 0 206 41" fill="none" xmlns="http://www.w3.org/2000/svg">
<path fill-rule="evenodd" clip-rule="evenodd" d="M16.3577 1L12.398 30.411C10.6921 30.411 5.8471 29.2959 0.115034 24.8356C0.0762676 24.8055 0.0379239 24.7757 0 24.7463V4C0 2.34315 1.34315 1 3 1H16.3577ZM16.5979 1C17.7408 11.4097 21.0984 30.411 21.0984 30.411C22.6338 30.411 30.3107 26.863 32.8697 25.3425C32.9147 25.3157 32.9581 25.2906 33 25.2669V4C33 2.34315 31.6569 1 30 1H16.5979ZM33 27.186C32.956 27.2491 32.9124 27.3106 32.8697 27.3699C30.8225 30.5799 24.681 37 16.4924 37C8.52218 37 2.9232 30.5863 0.322286 27.6069C0.251006 27.5252 0.181977 27.4462 0.115214 27.3699C0.0771729 27.3264 0.0387506 27.2824 0 27.2378V38C0 39.6569 1.34314 41 3 41H30C31.6569 41 33 39.6569 33 38V27.186Z" fill="#C60404"/>
<path d="M40.496 32V9.984H42V30.656H49.68V32H40.496ZM52.621 32V9.984H62.733V11.328H54.125V20.192H61.645V21.536H54.125V30.656H62.733V32H52.621ZM71.2015 32.256C70.3695 32.256 69.4628 32.2133 68.4815 32.128C67.5002 32.064 66.6468 31.9787 65.9215 31.872V30.496C66.6682 30.6027 67.5002 30.6987 68.4175 30.784C69.3562 30.8693 70.1348 30.912 70.7535 30.912C71.6282 30.912 72.3322 30.848 72.8655 30.72C73.4202 30.592 73.9002 30.368 74.3055 30.048C74.6895 29.7493 74.9348 29.2907 75.0415 28.672C75.1695 28.032 75.2335 27.1787 75.2335 26.112C75.2335 24.704 75.1802 23.744 75.0735 23.232C74.9882 22.6987 74.7642 22.3253 74.4015 22.112C74.0602 21.8987 73.4095 21.7173 72.4495 21.568L68.3535 20.928C67.4575 20.8 66.7962 20.5227 66.3695 20.096C65.9642 19.648 65.7082 19.0933 65.6015 18.432C65.4948 17.7707 65.4415 16.8213 65.4415 15.584C65.4415 13.472 65.8788 11.968 66.7535 11.072C67.6282 10.176 69.1108 9.728 71.2015 9.728C72.1188 9.728 73.0042 9.77067 73.8575 9.856C74.7322 9.92 75.4148 10.0267 75.9055 10.176V11.456C75.2868 11.3493 74.5615 11.264 73.7295 11.2C72.9188 11.1147 72.1722 11.072 71.4895 11.072C70.4655 11.072 69.6548 11.168 69.0575 11.36C68.4602 11.5307 68.0122 11.808 67.7135 12.192C67.3935 12.5547 67.1802 13.0133 67.0735 13.568C66.9668 14.1013 66.9135 14.7947 66.9135 15.648C66.9135 16.7573 66.9668 17.568 67.0735 18.08C67.1802 18.5707 67.3722 18.9227 67.6495 19.136C67.9482 19.328 68.4282 19.4773 69.0895 19.584L72.8975 20.16C73.9428 20.3307 74.7322 20.5653 75.2655 20.864C75.7988 21.1413 76.1935 21.6533 76.4495 22.4C76.5562 22.72 76.6202 23.1467 76.6415 23.68C76.6842 24.2133 76.7055 24.96 76.7055 25.92C76.7055 27.4987 76.5348 28.7467 76.1935 29.664C75.8735 30.56 75.3188 31.2213 74.5295 31.648C73.7402 32.0533 72.6308 32.256 71.2015 32.256ZM80.746 32V9.984H90.858V11.328H82.25V20.192H89.77V21.536H82.25V30.656H90.858V32H80.746ZM105.023 32L96.1265 13.28H95.9985V32H94.5905V9.984H96.1905L105.055 28.64H105.183V9.984H106.591V32H105.023ZM115.013 32V11.328H109.797V9.984H121.669V11.328H116.485V32H115.013ZM124.871 32V9.984H134.983V11.328H126.375V20.192H133.895V21.536H126.375V30.656H134.983V32H124.871ZM149.148 32L140.252 13.28H140.124V32H138.716V9.984H140.316L149.18 28.64H149.308V9.984H150.716V32H149.148ZM154.274 32V30.72L163.874 11.328H154.53V9.984H165.57V11.232L156.002 30.656H165.762V32H154.274ZM169.215 32V9.984H179.327V11.328H170.719V20.192H178.239V21.536H170.719V30.656H179.327V32H169.215ZM182.355 32V29.728H184.115V32H182.355ZM188.53 32V9.984H190.002V32H188.53ZM198.482 32V11.328H193.266V9.984H205.138V11.328H199.954V32H198.482Z" fill="#023D61"/>
<path d="M33 27.186C32.956 27.2491 32.9124 27.3106 32.8697 27.3699C30.8225 30.5799 24.681 37 16.4924 37C8.52218 37 2.9232 30.5863 0.322286 27.6069C0.251006 27.5252 0.181977 27.4462 0.115214 27.3699C0.0771729 27.3264 0.0387506 27.2824 0 27.2378V38C0 39.6569 1.34314 41 3 41H30C31.6569 41 33 39.6569 33 38V27.186Z" fill="#023D61"/>
</svg>
